<svg id="Layer_1" data-name="Layer 1" xmlns="http://www.w3.org/2000/svg" viewBox="0 0 1736.52 672.35"><defs><style>.cls-1{fill:#5d2574;}.cls-2{fill:#591f70;}</style></defs><path class="cls-1" d="M1678.58,588.73c-9,13.39-17,25.95-28.73,36-18.7,16-39.5,19.54-62.65,14.1-21.76-5.12-38.69-28.12-40.63-55.17-.27-3.75-.49-7.5-1-14.33-4.54,6.87-7.41,10.94-10,15.18-16.32,26.58-39.09,42.8-71,43.9-6.1.21-10.13,2.32-14.08,7.14-37.88,46.17-104.23,34-129-16.51-8.15-16.62-14.22-33.82-17.25-52.16-.8-4.82,0-10.44-5-15.68-8.27,15.92-14.3,32.14-22.87,47.1-8,14-17.12,27-28.44,38.39-22.37,22.43-52.89,19.38-70.84-6.53-14.11-20.37-18.81-43.82-22.92-67.52-.34-2-.68-3.89-1.09-5.82,0-.2-.59-.28-1.77-.81-7.69,14.56-14.87,29.52-23.3,43.74-10.43,17.6-23.36,33-39.94,45.63-43.81,33.36-121.59,18.47-135.72-53.76-.75-3.83-1.53-7.66-2.55-12.78-6.46,6.56-8.53,14.27-12,21a165.11,165.11,0,0,1-26.86,38c-14.71,15.48-33,18.79-52.78,15.68-19.32-3-30-18.93-30.34-44.16-.27-20.63,5.66-40.26,11.08-59.88a374,374,0,0,0,10.88-51.57c1.16-8.94,1.11-18.09-7-24.1s-17-2.92-25,.89c-16.4,7.85-27.56,21.63-37.47,36.18C754,549.57,738,593.16,721.64,636.56a68.14,68.14,0,0,1-3.21,7.74c-2.36,4.52-6.71,3.55-10.62,3.35-5.27-.26-4.89-4.28-4.89-7.9.09-48.73-.1-97.43,2.8-146.15,2.79-47,4.65-94,11.72-140.58,4.81-31.73,11.58-63.07,31.2-89.69,10.23-13.88,23.32-23.58,41.57-20.86,17.57,2.63,27.38,17,28.39,37.58,1.82,37.08-10.93,70.79-23.81,104.37-18.2,47.42-41.09,92.77-62.73,138.66-8.61,18.28-6.9,37.78-7.56,57.15,6.41.21,6.69-4.16,8-7.13,14.71-32.52,31.27-63.89,55.44-90.59,8.4-9.28,18.23-17,29.83-21.59,33.06-13.06,62.61,12.15,58,48.91-3.07,24.31-11.1,47.43-16.61,71.15-2.36,10.15-4.11,20.31-3.9,30.81.19,9.6,1.25,18.63,11.09,23.38,10.57,5.11,20.45,2.42,29.2-4.22,12.71-9.64,21-23.09,28.26-36.84,12.55-23.68,23.48-48.12,31-74,8.87-30.47,24.08-56.37,51.93-73.57,15.41-9.52,32.11-12.28,49.47-9.74,23.07,3.38,37.44,30,34,58.11-5.38,43.46-46.29,76.88-85.36,72.83a71.83,71.83,0,0,0-7.19,0c-19.35,0-19.37,0-14.57,19.47,5.14,20.86,14.46,39.34,33.67,50.37,27.81,16,58.74,8.7,82.25-19,23.69-27.89,37.42-61.14,49.32-95.21,2.58-7.37-.13-15-.28-22.55-1.34-67.19-.73-134.28,16.1-200,7.56-29.52,16.68-58.44,36.82-82.48a54.06,54.06,0,0,1,25.44-17.2c23.83-7.62,45.59,9.2,46.67,35.14,1.38,32.92-6.13,64.28-16,95.25-16.24,51.2-37.74,100.29-62.62,147.73-12.15,23.18-18.48,45.65-13.17,72,4.49,22.3,5.91,45.42,17.19,65.61s26,21.56,42.49,5.31c19-18.72,28-43.39,39.7-66.53,14.16-28.11,18.49-57.51,18.21-89.09-.5-56,5.1-111.66,22.18-165.47,7.29-23,16.24-45.18,34.74-62,4.5-4.09,9.24-7.93,15-9.74,22.35-7,37.17-1.28,41.49,22.85,4.87,27.12-.92,53.28-7.84,79.16-15.68,58.61-41,113.43-67.61,167.62-6.58,13.39-10.27,26.15-7.89,41.24,4.68,29.74,9,59.49,28.17,84.18,19.43,25,53.85,28.55,75,8.5,5.67-5.37,5.94-8-1.86-11.42-38.86-17.27-56.5-48.65-58.17-90.06-.47-11.56-.3-23.05,3-34.46,7.09-24.51,26-41.54,48.84-43.07,22.17-1.49,43.93,13.41,52.92,37.6,13.87,37.35,8.06,73.88-6.17,109.82-1.41,3.57-5.78,7.46-3,10.86,3.14,3.8,8.31.74,12.45-.09,17.1-3.44,29.52-14,38.95-27.89,16.73-24.64,28.1-51.94,37.53-80.07a268.1,268.1,0,0,1,23.79-52.27c3.09-5.18,6.25-9.37,13.26-6,7.29,3.47,2.35,7.94,1.19,12.05-10.61,37.73-21.17,75.49-19.31,115.29.64,13.68,2.81,27.08,11,38.64,12,17,33.72,21,49.25,7.23a185.39,185.39,0,0,0,57-92.48c7.44-27.85,14.29-55.74,27.14-81.73,2.58-5.22,4.21-12,12.76-8.78,8.16,3,3.34,9.11,2.44,13.17-12.73,57-20,114.73-25,172.8-.59,6.75-.48,13.56-.74,20.35-.09,2.23-1.72,5,1.14,6.33,2.64,1.27,4.35-1.21,6.11-2.65a222.85,222.85,0,0,0,43.07-46.37c18.81-27.53,32.94-57.51,45.81-88.15,1.76-4.21,2.22-9.94,9.24-8.61,5,.94,8.34,2.55,5.84,8.78-23.6,58.69-50.15,115.39-104.07,153.38-6.42,4.52-7.78,9.81-8.19,17.15-2.48,45-9.75,89-32.85,128.73-7.85,13.51-17.52,25.6-30.2,35.23-17.58,13.35-36.39,18.87-56.9,8.49s-30.81-28.65-32-51.35c-1.35-25.16,10.14-45.32,26.39-63.52,24.69-27.65,56-46.08,87.81-63.75,7.72-4.3,10.88-9,10.63-17.76-.56-19.18,0-38.39-.16-57.59C1681,597.1,1682.53,592.94,1678.58,588.73ZM1177,478.05c28.71-52.23,53.18-105.55,70.08-162,7.33-24.53,13.82-49.29,12.67-75.31-.62-14-6.71-25.85-15.69-27.15-12.4-1.78-21.31,4.93-27.91,14.85a159.3,159.3,0,0,0-20.3,44.52c-11.26,39-16.42,79-18.56,119.25C1175.81,420.75,1177,449.43,1177,478.05Zm152.07,2.25c21.15-43.33,40.2-87.15,54.79-132.8,8.78-27.46,16.74-55,15.32-84.38-.44-9.17-1.53-18.3-11.31-21.84s-17.86,1.08-24.42,8.44c-9,10.07-14.1,22.16-18,34.87-10.58,35-13.74,71.21-16.38,107.36A600.32,600.32,0,0,0,1329.1,480.3ZM1614,845.77c9.92-.93,20-6.49,27.24-16.09,28.92-38.59,34-84.35,37.7-130.29.71-8.67-4.88-4.64-8.48-2.42-24.28,15-46.15,33-64.72,54.65-12.86,15-22.17,32.07-25,52.23C1577.89,824.93,1593.12,846,1614,845.77ZM730.28,490.64c30.14-54.52,56.94-109.95,70.53-170.66,3.29-14.68,6.52-29.55,3.1-44.91-1.92-8.62-4.17-16.68-14-18.71-9.55-2-16,3.73-21.18,10.67-7,9.4-11.09,20.23-14.05,31.51-12.79,48.8-16.91,98.83-21,148.86C732.43,461.81,731.39,476.23,730.28,490.64Zm739.56,43.42a81.39,81.39,0,0,0-14.25-50.25c-7.45-10.92-18.23-16.78-31.77-14.91-12,1.66-18.24,10.38-22.13,20.91-9.12,24.71-7.37,49.46,1.69,73.58,7.13,19,18.16,35.27,37.21,44.91,6.74,3.41,9.64,1.86,12.7-4.54C1463.4,582.64,1470.09,560.8,1469.84,534.06Zm-463.68,20.61c30.68,3.65,66.67-23.53,70.53-62.63,1.53-15.52-1.42-29.68-15.51-38.85-11.18-7.27-29.7-4.62-42.67,5.13-22.06,16.59-32.26,40-37.46,66C975.19,553.63,976.29,554.67,1006.16,554.67Z" transform="translate(-84.88 -199.33)"/><path class="cls-2" d="M264.6,512c-.64,48.67,11.46,94.71,28.47,139.81,4.11,10.92,10.14,13.71,21.68,11.36,40.56-8.25,77.19-25.61,111.57-47.67,43.92-28.17,82.35-62.9,117.23-101.75,7-7.78,2.3-12.34-1.33-17.41-15.11-21.13-29.41-42.76-41.71-65.64-22.36-41.63-37.19-85.13-26.44-133.06,6.33-28.19,18.6-53.75,44.35-69.94,27.2-17.1,66.09-12.82,95.52,8.68,41,29.92,60.36,70.21,58.75,120.43-1,31.17-10.43,60.32-25,87.87-14.76,27.86-31.17,54.63-51.55,78.77-5.13,6.09-.09,9.44,2.73,13.37,21.12,29.53,42.43,59,57.34,92.32C674.48,670,685.15,712.44,672.69,757,656.18,816.1,612,865.26,544.35,870.32c-42.65,3.18-79.43-10.72-115.74-30.49C378,812.27,340.93,771.42,311,723.42c-8.12-13-16.85-18-33-18.79-68.82-3.39-152.93-49.94-181.18-124.09-10.63-27.9-14.55-56.26-10.24-85.79.64-4.35-1.38-10.85,6.94-9,6.32,1.44,13.72,1,12.27,11.9-3.15,23.59-1.81,47,5.77,69.84,15.77,47.41,50,75.45,95.83,91.24a170.94,170.94,0,0,0,55.11,9.61c16.67.09,16.74,0,10.43-16.09-13.33-34-23.39-68.78-28.58-105-4.73-33-5.53-66.07,1.29-98.73,4.19-20.07,12.77-38.82,28.58-52.87,20.35-18.07,47.12-20.56,70.89-4.62,31.35,21,41.53,55.73,22.25,87.44-9.46,15.55-24.36,23.8-42.62,25.28-4.32.36-9.39.9-9.19-6,.15-5.31-1.45-10.32,7.11-12.31,27.38-6.37,40.19-23.92,36.55-47.29-3-19-15-29.71-32.61-33.9-15.23-3.62-27.28,4.07-36.89,15-19,21.64-23.05,48.52-25.07,75.9C264.25,500.76,264.6,506.39,264.6,512ZM506,826.77c7.61.51,19-.76,30.35-3.53,66.31-16.2,103.51-90.46,95.72-155.55-5.17-43.2-27.36-78.66-49.15-114.5-3.14-5.17-5.62-6.48-10.5-1-18.26,20.67-37.53,40.42-58.6,58.25-53.15,45-111.16,80.6-181.37,91.7-11,1.74-10.87,5.47-5.44,13.49,22,32.48,48.76,60.35,81.93,81.23C437.15,814.66,467.49,827.56,506,826.77ZM638.71,330.7c1.09-19-3.07-37.26-13.42-53.45-14.21-22.19-32.44-39.54-60.46-41.91-35.09-3-59.37,23.51-70.72,55.28-9.23,25.82-6.09,52,1.44,77.63,12.6,42.86,38.24,78.66,63.48,114.6,3.89,5.54,6.88,3.65,10-.77,11.3-15.91,23.31-31.35,33.94-47.69C623.44,403,640.34,370.1,638.71,330.7Z" transform="translate(-84.88 -199.33)"/><path class="cls-1" d="M790.63,817c-11,7.09-22.72,11.29-36,8.8-21.59-4.07-37.24-18.23-40.62-40-2.86-18.42-4.73-37.41,4-55.17,13.18-26.75,39.31-35.88,66.21-23.33,3.69,1.72,6,4.73,10.3-.94,2.95-3.9,10.77-2.37,15.91-.75,5.49,1.73,3.08,7.57,3.1,11.6q.27,50.31.07,100.62C813.5,850,799,866.25,767.28,871.39c-8.14,1.32-12.56-1.75-16.19-8.62-3-5.64-1.62-8,4.21-8.93s11.93-1.43,17.62-3.07C788.82,846.18,794.8,834.77,790.63,817Zm2.09-53.1c0-5.18,0-10.36,0-15.54-.05-13.31-6.69-22.27-19.45-26.24-10.85-3.38-25.7,1.43-32.2,10.43-10.78,14.91-10.35,47.73.81,62.46,7.43,9.8,21.16,13.76,33.4,9.64,12.53-4.21,17.4-11.57,17.44-26.41C792.73,773.5,792.72,768.72,792.72,763.94Z" transform="translate(-84.88 -199.33)"/><path class="cls-1" d="M1097,775.53c0,12.79.09,25.59,0,38.38,0,3.37,1.4,8.11-3.3,9.17-4.9,1.1-12.41,3.08-14.61-1.16-4.35-8.39-7.68-2.88-11.87-1.11-15.38,6.48-31.24,7.23-46.48.66-16.18-7-23.65-25.27-19.76-44.48,3.24-16,20.06-29.19,38.77-30.45a76.85,76.85,0,0,1,29.53,3.62c6.93,2.3,8.42-.44,8.08-6.69-.78-14.23-8.59-21.69-22.64-22.31-11.6-.51-22.06,2.84-32.2,7.8-3.54,1.74-7.31,5.23-9.27-1.31-1.47-4.93-6.42-10.83.89-14.81,20.91-11.38,42.79-16.21,65.27-5.15,12.15,6,17.21,17.43,17.56,30.67C1097.28,750.74,1097,763.14,1097,775.53Zm-52,31.91c10.45.83,19.64-3.59,27.57-10.67,7.18-6.42,7-22-.36-25.94-10.76-5.65-22.11-8.62-34.39-4.66-12.92,4.17-19.3,12.4-17.45,23.12C1022.47,801.12,1030.77,807.39,1045.06,807.44Z" transform="translate(-84.88 -199.33)"/><path class="cls-1" d="M1534,761.74c.48,17.93-2.66,33.06-13.38,45.45a56.78,56.78,0,0,1-63,15.9c-21.32-8.15-34-27.75-34.57-52.51-.39-16.63.69-32.76,10.66-47,12.64-18,30.89-23.22,51.44-21.31,20.06,1.87,35.35,11.52,43.08,31.07C1532.1,743.1,1535.36,752.93,1534,761.74Zm-56.55,44c16.84,0,25.44-5.34,31.34-20.51,6.39-16.43,5.89-32.67-2.55-48.46-6.22-11.63-16.42-15.67-28.82-15.43-12.59.25-22.69,5.57-28,17.13-7.28,15.93-7.45,32.37-.88,48.78C1453.85,800.33,1463.49,806.36,1477.47,805.7Z" transform="translate(-84.88 -199.33)"/><path class="cls-1" d="M895.7,718.62c15.79-13.91,34-19.36,55-15.51,9.17,1.68,14.71,4.72,13.47,15.34a114.18,114.18,0,0,0,0,20.34c.47,7.6-1,11.53-10.22,11.58-9.4,0-11.37-3.37-11.14-11.93.44-16.46-1.68-17.84-17.66-14.51-21.17,4.4-29.74,14.92-29.76,36.56,0,11.17.39,22.37-.13,33.53-.38,8,2.8,10.85,10.45,10.12,4-.38,8,.2,12-.13,7.45-.61,11.67.74,11.67,10.07,0,9.76-5,9.81-12.08,9.72-19.54-.24-39.1-.43-58.63.08-8.11.21-10.14-2.81-10.13-10.43,0-7.43,2.63-10.45,9.77-9.35,11.5,1.78,15.3-2.84,14.68-14.44-.93-17.52-.84-35.15,0-52.68.5-10.77-2.43-15.91-13.8-14-8.68,1.44-11.16-2.85-10.52-10.93.39-5,2.18-7.17,7.23-7.09,10.36.16,20.75.3,31.11,0S891.74,713.89,895.7,718.62Z" transform="translate(-84.88 -199.33)"/><path class="cls-1" d="M1336.48,701.91a54.44,54.44,0,0,1,32,11.63c3.06,2.44,8.4,5.45,3.2,10.43-3.85,3.68-6.62,11.17-14.4,5.23a38.69,38.69,0,0,0-25.72-8c-8.44.33-17.15,1.4-19.32,10.58-2.22,9.39,6.48,12.75,13.25,15.93,10.81,5.08,22.08,9.21,32.8,14.46,15.15,7.41,22.27,20.68,20.2,35.94-1.74,12.77-13.23,23.59-28.6,27.07-20.17,4.57-37.86-.56-53.41-13.77-3.36-2.86-7.49-6.45-1.83-10.48,4.23-3,7.71-10.84,14.85-4.33,9.42,8.58,20.5,12.32,33,10.57,7.42-1,14.21-4.52,16-12.43,1.88-8.15-4.23-12.44-10.49-15.51-10-4.9-20.42-9-30.45-13.9-21.67-10.52-29.52-23-25.31-39.42C1295.87,712.18,1313.13,702,1336.48,701.91Z" transform="translate(-84.88 -199.33)"/><path class="cls-1" d="M1190.72,721.3c-1.59,0-3.19-.09-4.78,0-7.15.45-14.08,2.42-16.15,10-2.3,8.39,4.64,12.28,10.67,15.2,11.11,5.37,22.8,9.53,33.91,14.91,16.26,7.88,23.75,20.94,21.7,36.27-1.81,13.56-13.76,24.3-30.66,27.82-18.93,3.93-35.54-1.11-50.17-13.12-3.22-2.64-9.4-6.08-3.14-11.24,4.26-3.51,8-11.26,15.69-3.88,8.19,7.84,18.4,10.83,29.71,10,8.51-.63,16.23-3.51,18.54-12.32s-4.77-13-11.28-16.22C1193,772.86,1180.69,768,1169,762.07c-15.42-7.85-21.47-18.86-19.55-33.6,1.46-11.26,12.87-21.75,27.58-25,17.25-3.85,33.38-.81,47.87,9.24,3.34,2.31,9.81,5.16,4.62,11.05-3.82,4.33-7.26,11.54-15.37,5.11C1207.4,723.5,1199.55,720.63,1190.72,721.3Z" transform="translate(-84.88 -199.33)"/></svg>